<?xml version="1.0" encoding="UTF-8" standalone="no"?>
<!-- Created with Inkscape (http://www.inkscape.org/) -->

<svg
   xmlns:dc="http://purl.org/dc/elements/1.1/"
   xmlns:cc="http://creativecommons.org/ns#"
   xmlns:rdf="http://www.w3.org/1999/02/22-rdf-syntax-ns#"
   xmlns:svg="http://www.w3.org/2000/svg"
   xmlns="http://www.w3.org/2000/svg"
   xmlns:sodipodi="http://sodipodi.sourceforge.net/DTD/sodipodi-0.dtd"
   xmlns:inkscape="http://www.inkscape.org/namespaces/inkscape"
   version="1.0"
   width="93.53125"
   height="91.375"
   id="svg7877"
   inkscape:version="0.48.4 r9939"
   sodipodi:docname="Army-USA-OR-02.svg" viewBox="0 0 93.5312 91.375">
  
  
  
  <g
     transform="translate(-147.9375,-388.5625)"
     id="g3068">
    <path
       d="m 194.70978,388.70562 c -9.15532,25.42539 -25.55617,47.38993 -46.71875,63.40625 l 0,27.75 c 18.24846,-11.04163 34.14219,-25.61239 46.71875,-42.75 12.57657,17.13761 28.47029,31.70837 46.71875,42.75 l 0,-27.75 C 220.26595,436.09555 203.8651,414.13101 194.70978,388.70562 z"
       id="path7629"
       style="fill:#1a374f;fill-opacity:1;stroke:#000000;stroke-width:0;stroke-miterlimit:4;stroke-opacity:1;stroke-dasharray:none"
       inkscape:connector-curvature="0" />
    <path
       d="m 194.70978,405.14312 c -9.80201,19.78862 -24.02909,37.02277 -41.375,50.375 l 0,12.8125 c 16.36319,-11.3349 30.44222,-25.74882 41.375,-42.40625 10.93278,16.65743 25.01184,31.07135 41.375,42.40625 l 0,-12.8125 c -17.34591,-13.35223 -31.57296,-30.58638 -41.375,-50.375 z"
       id="path7627"
       style="fill:#f3c463;fill-opacity:1;stroke:#000000;stroke-width:0;stroke-miterlimit:4;stroke-opacity:1;stroke-dasharray:none"
       inkscape:connector-curvature="0" />
  </g>
</svg>
