<?xml version="1.0" encoding="UTF-8" standalone="no"?>
<!-- Created with Inkscape (http://www.inkscape.org/) -->

<svg
   xmlns:dc="http://purl.org/dc/elements/1.1/"
   xmlns:cc="http://creativecommons.org/ns#"
   xmlns:rdf="http://www.w3.org/1999/02/22-rdf-syntax-ns#"
   xmlns:svg="http://www.w3.org/2000/svg"
   xmlns="http://www.w3.org/2000/svg"
   xmlns:xlink="http://www.w3.org/1999/xlink"
   version="1.1"
   width="183.26942"
   height="68.235855"
   id="svg2816" viewBox="0 0 183.269 68.2359">
  
  
  <rect
     width="182.26942"
     height="67.235855"
     x="0.5"
     y="0.49999976"
     id="rect3602"
     style="fill:#ffe42b;fill-opacity:1;fill-rule:evenodd;stroke:#f8b823;stroke-width:1;stroke-linecap:round;stroke-linejoin:miter;stroke-miterlimit:4;stroke-opacity:1;stroke-dasharray:none;stroke-dashoffset:0" />
  <path
     d="m 2.5537916,2.68206 0,62.875 178.1562484,0 0,-62.875 -178.1562484,0 z m 10.9687504,10.90625 156.218748,0 0,41.0625 -156.218748,0 0,-41.0625 z"
     id="rect3602-1"
     style="fill:#ffffff;fill-opacity:1;fill-rule:evenodd;stroke:#f8b823;stroke-width:1;stroke-linecap:round;stroke-linejoin:miter;stroke-miterlimit:4;stroke-opacity:1;stroke-dasharray:none;stroke-dashoffset:0" />
  <path
     d="m 170.21529,13.114055 0,42.017357 10.014,9.882148 0,-61.858654 -10.014,9.959149 z"
     id="path3649"
     style="fill:url(#linearGradient3783);fill-opacity:1;stroke:none" />
  <path
     d="m 2.875,3.03125 10.09375,10.15625 42.5625,0 0.0625,-0.0625 32.40625,0 41.21875,0 41.15625,0 9.875,-10.03125 -41.15625,0 -41.21875,0 -32.40625,0 0.0625,-0.0625 -62.65625,0 z"
     id="path3649-9"
     style="fill:url(#linearGradient3760);fill-opacity:1;stroke:none" />
  <path
     d="M 180.05794,2.70947 169.91105,13.56842"
     id="path2825-3-6"
     style="fill:#f8b823;fill-opacity:1;stroke:#f8b823;stroke-width:1px;stroke-linecap:butt;stroke-linejoin:miter;stroke-opacity:1" />
  <path
     d="m 13.080635,55.097411 0,-42.017357 -10.0949834,-9.882148 0,61.858654 10.0949834,-9.959149 z"
     id="path3649-9-5"
     style="fill:url(#linearGradient3664);fill-opacity:1;stroke:none" />
  <path
     d="M 2.5967016,3.404906 13.455652,13.551793"
     id="path2825-3-6-2"
     style="fill:#f8b823;fill-opacity:1;stroke:#f8b823;stroke-width:1px;stroke-linecap:butt;stroke-linejoin:miter;stroke-opacity:1" />
  <path
     d="m 127.84375,55.03125 -0.0937,0.09375 -31.6875,0 -41.28125,0 -0.75,0 -41.25,0 -9.90625,10 41.28125,0 20.59375,0 41.28125,0 11.90625,0 -0.0937,0.09375 62.75,0 -10.125,-10.1875 -42.625,0 z"
     id="path3649-9-5-6"
     style="fill:url(#linearGradient3640);fill-opacity:1;stroke:none" />
  <path
     d="M 3.0972916,65.52151 13.244179,54.66256"
     id="path2825-3-6-2-2"
     style="fill:#f8b823;fill-opacity:1;stroke:#f8b823;stroke-width:1px;stroke-linecap:butt;stroke-linejoin:miter;stroke-opacity:1" />
  <path
     d="M 180.85095,65.024678 169.76953,54.669916"
     id="path2825-3"
     style="fill:#f8b823;fill-opacity:1;stroke:#f8b823;stroke-width:1;stroke-linecap:butt;stroke-linejoin:miter;stroke-miterlimit:4;stroke-opacity:1;stroke-dasharray:none" />
  <rect
     width="152.10664"
     height="37.011272"
     x="15.58139"
     y="15.612291"
     id="rect3602-4"
     style="fill:#1a374f;fill-opacity:1;fill-rule:evenodd;stroke:#f8b823;stroke-width:0.97792363;stroke-linecap:round;stroke-linejoin:miter;stroke-miterlimit:4;stroke-opacity:1;stroke-dasharray:none;stroke-dashoffset:0" />
  <g
     transform="matrix(0.05259924,0,0,0.05259924,25.538525,18.796492)"
     id="g3059">
    <g
       id="g3274">
      <path
         d="m 236.96975,219.68934 77.35657,-214.2133 77.73644,214.5624 223.96137,0.8679 -175.4122,131.65598 82.07129,224.31531 L 314.8596,433.14745 112.43749,577.09646 191.21944,354.85708 5.403217,220.899 236.96975,219.68934 z"
         id="path3145-9"
         style="fill:#ffffff;fill-opacity:1;fill-rule:evenodd;stroke:none" />
      <path
         d="M 314.8596,433.14745 112.43749,577.09646 314.04447,312.47864 314.8596,433.14745 z"
         id="path3143-0"
         style="fill:url(#linearGradient3093);fill-opacity:1;fill-rule:evenodd;stroke:none" />
      <path
         d="M 314.03287,312.46553 191.21944,354.85708 5.403217,220.899 314.03287,312.46553 z"
         id="path4126-2"
         style="fill:url(#linearGradient3095);fill-opacity:1;fill-rule:evenodd;stroke:none" />
      <path
         d="m 314.03498,312.49408 -77.70645,-93.12919 77.26064,-211.78151 0.44581,304.9107 z"
         id="path5109-3"
         style="fill:url(#linearGradient3097);fill-opacity:1;fill-rule:evenodd;stroke:none" />
      <path
         d="m 392.06276,220.03844 223.96137,0.8679 -301.97458,91.58488 78.01321,-92.45278 z"
         id="path5113-9"
         style="fill:url(#linearGradient3099);fill-opacity:1;fill-rule:evenodd;stroke:none" />
      <path
         d="M 440.61193,352.56232 522.68322,576.87763 314.0487,312.50783 440.61193,352.56232 z"
         id="path5123-9"
         style="fill:url(#linearGradient3101);fill-opacity:1;fill-rule:evenodd;stroke:none" />
      <path
         d="m 236.96975,219.68934 77.35657,-214.2133 77.73644,214.5624 223.96137,0.8679 -175.4122,131.65598 82.07129,224.31531 L 314.8596,433.14745 112.43749,577.09646 191.21944,354.85708 5.403217,220.899 236.96975,219.68934 z"
         id="path2170-7"
         style="fill:none;stroke:#000000;stroke-width:6.8063302;stroke-linecap:butt;stroke-linejoin:miter;stroke-miterlimit:4;stroke-opacity:1;stroke-dasharray:none" />
    </g>
    <g
       id="g3283">
      <path
         d="m 867.54675,219.68934 77.35657,-214.2133 77.73648,214.5624 223.9613,0.8679 -175.4122,131.65598 82.0713,224.31531 L 945.4366,433.14745 743.01449,577.09646 821.79644,354.85708 635.98022,220.899 867.54675,219.68934 z"
         id="path2178-0"
         style="fill:#ffffff;fill-opacity:1;fill-rule:evenodd;stroke:none" />
      <path
         d="M 945.4366,433.14745 743.01449,577.09646 944.62147,312.47864 945.4366,433.14745 z"
         id="path2180-3"
         style="fill:url(#linearGradient3103);fill-opacity:1;fill-rule:evenodd;stroke:none" />
      <path
         d="M 944.60987,312.46553 821.79644,354.85708 635.98022,220.899 944.60987,312.46553 z"
         id="path2182-9"
         style="fill:url(#linearGradient3105);fill-opacity:1;fill-rule:evenodd;stroke:none" />
      <path
         d="m 944.61198,312.49408 -77.70645,-93.12919 77.26064,-211.78151 0.44581,304.9107 z"
         id="path2184-8"
         style="fill:url(#linearGradient3107);fill-opacity:1;fill-rule:evenodd;stroke:none" />
      <path
         d="m 1022.6398,220.03844 223.9613,0.8679 -301.97455,91.58488 78.01325,-92.45278 z"
         id="path2186-6"
         style="fill:url(#linearGradient3109);fill-opacity:1;fill-rule:evenodd;stroke:none" />
      <path
         d="m 1071.1889,352.56232 82.0713,224.31531 -208.6345,-264.3698 126.5632,40.05449 z"
         id="path2188-5"
         style="fill:url(#linearGradient3111);fill-opacity:1;fill-rule:evenodd;stroke:none" />
      <path
         d="m 867.54675,219.68934 77.35657,-214.2133 77.73648,214.5624 223.9613,0.8679 -175.4122,131.65598 82.0713,224.31531 L 945.4366,433.14745 743.01449,577.09646 821.79644,354.85708 635.98022,220.899 867.54675,219.68934 z"
         id="path2190-7"
         style="fill:none;stroke:#000000;stroke-width:6.8063302;stroke-linecap:butt;stroke-linejoin:miter;stroke-miterlimit:4;stroke-opacity:1;stroke-dasharray:none" />
    </g>
    <g
       id="g3292">
      <path
         d="m 1498.0418,219.68934 77.3565,-214.2133 77.7365,214.5624 223.9613,0.8679 -175.4122,131.65598 82.0713,224.31531 -207.8236,-143.73018 -202.4221,143.94901 78.7819,-222.23938 -185.8162,-133.95808 231.5666,-1.20966 z"
         id="path2222-6"
         style="fill:#ffffff;fill-opacity:1;fill-rule:evenodd;stroke:none" />
      <path
         d="m 1575.9316,433.14745 -202.4221,143.94901 201.607,-264.61782 0.8151,120.66881 z"
         id="path2224-2"
         style="fill:url(#linearGradient3113);fill-opacity:1;fill-rule:evenodd;stroke:none" />
      <path
         d="M 1575.1049,312.46553 1452.2914,354.85708 1266.4752,220.899 1575.1049,312.46553 z"
         id="path2226-7"
         style="fill:url(#linearGradient3115);fill-opacity:1;fill-rule:evenodd;stroke:none" />
      <path
         d="m 1575.107,312.49408 -77.7065,-93.12919 77.2607,-211.78151 0.4458,304.9107 z"
         id="path2228-0"
         style="fill:url(#linearGradient3117);fill-opacity:1;fill-rule:evenodd;stroke:none" />
      <path
         d="m 1653.1348,220.03844 223.9613,0.8679 -301.9745,91.58488 78.0132,-92.45278 z"
         id="path2230-3"
         style="fill:url(#linearGradient3119);fill-opacity:1;fill-rule:evenodd;stroke:none" />
      <path
         d="m 1701.6839,352.56232 82.0713,224.31531 -208.6345,-264.3698 126.5632,40.05449 z"
         id="path2232-9"
         style="fill:url(#linearGradient3121);fill-opacity:1;fill-rule:evenodd;stroke:none" />
      <path
         d="m 1498.0418,219.68934 77.3565,-214.2133 77.7365,214.5624 223.9613,0.8679 -175.4122,131.65598 82.0713,224.31531 -207.8236,-143.73018 -202.4221,143.94901 78.7819,-222.23938 -185.8162,-133.95808 231.5666,-1.20966 z"
         id="path2234-9"
         style="fill:none;stroke:#000000;stroke-width:6.8063302;stroke-linecap:butt;stroke-linejoin:miter;stroke-miterlimit:4;stroke-opacity:1;stroke-dasharray:none" />
    </g>
    <g
       id="g3301">
      <path
         d="m 2128.7418,219.68934 77.3565,-214.2133 77.7365,214.5624 223.9613,0.8679 -175.4122,131.65598 82.0713,224.31531 -207.8236,-143.73018 -202.4221,143.94901 78.7819,-222.23938 -185.8162,-133.95808 231.5666,-1.20966 z"
         id="path2248-9"
         style="fill:#ffffff;fill-opacity:1;fill-rule:evenodd;stroke:none" />
      <path
         d="m 2206.6316,433.14745 -202.4221,143.94901 201.607,-264.61782 0.8151,120.66881 z"
         id="path2250-1"
         style="fill:url(#linearGradient3123);fill-opacity:1;fill-rule:evenodd;stroke:none" />
      <path
         d="M 2205.8049,312.46553 2082.9914,354.85708 1897.1752,220.899 2205.8049,312.46553 z"
         id="path2252-7"
         style="fill:url(#linearGradient3125);fill-opacity:1;fill-rule:evenodd;stroke:none" />
      <path
         d="m 2205.807,312.49408 -77.7065,-93.12919 77.2607,-211.78151 0.4458,304.9107 z"
         id="path2254-2"
         style="fill:url(#linearGradient3127);fill-opacity:1;fill-rule:evenodd;stroke:none" />
      <path
         d="m 2283.8348,220.03844 223.9613,0.8679 -301.9745,91.58488 78.0132,-92.45278 z"
         id="path2256-3"
         style="fill:url(#linearGradient3129);fill-opacity:1;fill-rule:evenodd;stroke:none" />
      <path
         d="m 2332.3839,352.56232 82.0713,224.31531 -208.6345,-264.3698 126.5632,40.05449 z"
         id="path2258-6"
         style="fill:url(#linearGradient3131);fill-opacity:1;fill-rule:evenodd;stroke:none" />
      <path
         d="m 2128.7418,219.68934 77.3565,-214.2133 77.7365,214.5624 223.9613,0.8679 -175.4122,131.65598 82.0713,224.31531 -207.8236,-143.73018 -202.4221,143.94901 78.7819,-222.23938 -185.8162,-133.95808 231.5666,-1.20966 z"
         id="path2260-5"
         style="fill:none;stroke:#000000;stroke-width:6.8063302;stroke-linecap:butt;stroke-linejoin:miter;stroke-miterlimit:4;stroke-opacity:1;stroke-dasharray:none" />
    </g>
  </g>
</svg>
