<?xml version="1.0" encoding="UTF-8" standalone="no"?>
<!-- Created with Inkscape (http://www.inkscape.org/) -->

<svg
   xmlns:dc="http://purl.org/dc/elements/1.1/"
   xmlns:cc="http://creativecommons.org/ns#"
   xmlns:rdf="http://www.w3.org/1999/02/22-rdf-syntax-ns#"
   xmlns:svg="http://www.w3.org/2000/svg"
   xmlns="http://www.w3.org/2000/svg"
   xmlns:sodipodi="http://sodipodi.sourceforge.net/DTD/sodipodi-0.dtd"
   xmlns:inkscape="http://www.inkscape.org/namespaces/inkscape"
   version="1.0"
   width="93.438019"
   height="175.12503"
   viewBox="-0.862 -0.666 88.766118 171.23336"
   id="svg6659"
   xml:space="preserve"
   style="display:inline"
   inkscape:version="0.48.4 r9939"
   sodipodi:docname="Army-USA-OR-09b.svg">































































































































































































































































































































































<path
   d="M 43.429921,-0.666 C 34.477386,24.194006 18.441827,45.670899 -2.2508889,61.330992 l 0,95.517178 c 13.0464919,8.65822 28.6762729,13.7192 45.4969879,13.7192 0.0616,0 0.122222,0 0.183822,0 0.0616,0 0.122223,0 0.183823,0 16.820715,0 32.450496,-5.06098 45.496988,-13.7192 l 0,-95.517178 C 68.417038,45.670899 52.381479,24.194006 43.429921,-0.666 z"
   id="path7798_1_"
   style="fill:#1a374f;fill-opacity:1"
   inkscape:connector-curvature="0" /><path
   d="M 43.442388,67.768927 C 31.739362,80.640396 18.105227,91.706888 2.9868234,100.52449 l 0,15.18611 c 8.8283576,12.71894 23.5023606,21.05279 40.1500086,21.05279 17.031914,0 31.999252,-8.72129 40.761121,-21.9389 l 0,-14.3 C 68.779548,91.706888 55.145413,80.640396 43.442388,67.768927 z m 0,13.780558 c 10.154619,9.974824 21.462476,18.759435 33.733341,26.125005 0.0045,0.003 -0.0045,0.0279 0,0.0305 -6.834192,11.69163 -19.526872,19.525 -34.038897,19.525 -14.402474,0 -27.016003,-7.73486 -33.8861179,-19.28056 C 21.689994,100.53094 33.1675,91.642392 43.442388,81.549427 z"
   id="path7800_1_"
   style="fill:#f3c463"
   inkscape:connector-curvature="0" /><path
   d="m 83.915797,122.35118 c -9.812002,11.57298 -24.440539,18.94445 -40.79192,18.94445 -16.010137,0 -30.385429,-7.05467 -40.1808092,-18.21111 l 0,13.23031 c 10.9022242,9.06107 24.9040052,14.51414 40.1808092,14.51414 15.558403,0 29.798762,-5.67111 40.79192,-15.03334 l 0,-13.44445 z"
   id="path7802_1_"
   style="fill:#f3c463"
   inkscape:connector-curvature="0" /><path
   d="m 83.915797,141.17341 c -11.311913,8.668 -25.451561,13.84143 -40.79192,13.84143 -15.074404,0 -28.973518,-4.98569 -40.1808092,-13.38383 l 0,11.61111 c 11.6912912,7.20232 25.4456942,11.36667 40.1808092,11.36667 14.980537,0 28.971562,-4.30711 40.79192,-11.73333 l 0,-11.70205 z"
   id="path7804_1_"
   style="fill:#f3c463"
   inkscape:connector-curvature="0" /><path
   d="M 43.429921,15.406715 C 33.845741,34.754986 19.933916,51.606012 2.9743567,64.662282 l 0,12.528269 C 18.973738,66.10646 32.739875,52.012768 43.429921,35.725919 54.11899,52.012768 67.885127,66.10646 83.885486,77.189573 l 0,-12.527291 C 66.924949,51.606012 53.014101,34.754986 43.429921,15.406715 z"
   id="path7806_1_"
   style="fill:#f3c463"
   inkscape:connector-curvature="0" /><path
   d="M 43.429921,44.43401 C 32.396674,59.640414 18.671605,72.774906 2.9743567,83.148152 l 0,11.336359 C 18.264849,85.190731 31.916585,73.479884 43.429921,59.895614 54.94228,73.479884 68.594994,85.190731 83.885486,94.484511 l 0,-11.336359 C 68.18726,72.774906 54.463168,59.640414 43.429921,44.43401 z"
   id="path7808_1_"
   style="fill:#f3c463"
   inkscape:connector-curvature="0" /><g
   id="g3051"
   transform="translate(-3.2080879,-2.38333)"><path
     d="m 46.658504,125.58903 3.201305,1.95475 2.82492,-0.69751 -2.72029,-2.05766 1.22064,-0.52314 3.59218,0.73239 c 5.62659,-1.01138 5.9521,-2.9993 6.10322,-3.31317 l -1.77865,0.0698 2.51104,-3.13881 c 0.53476,-0.94165 0.47664,-2.09254 0.66263,-3.13879 -0.30225,-0.40689 -0.744,0.5115 -1.36014,0.1395 0,0 1.71471,-3.39015 1.81353,-5.02209 0.36905,-6.09475 -0.83456,-1.85412 -0.52534,-3.2981 0.35411,-1.65373 0.0022,-4.51401 0.0022,-4.51401 -0.47663,-1.16252 -0.25575,-1.87164 -2.89468,-3.278283 -1.38339,-1.546159 -3.53405,-5.498709 -7.81212,-5.684709 0.46501,-0.12789 -0.81376,1.41826 3.34805,5.859079 l -0.24412,2.336653 c -4.2e-4,1.06921 0.78786,2.25838 1.77864,3.73168 l -0.78962,-0.53334 c -0.17015,-0.0907 -0.69751,-0.27901 -0.90676,0.4185 -0.02357,1.04709 -0.11934,1.22989 -0.28033,2.18568 -0.11807,0.70094 0.0011,2.58201 -0.04606,3.57899 -0.26685,0.0666 -0.33643,-0.36004 -0.57246,-0.17631 l -1.31082,1.71084 -0.59288,3.55731 -1.63916,-1.38807 c -0.60211,0.10256 -0.81376,1.75298 -1.23459,2.2181 0.03717,0.99747 0.07433,2.09255 0.02784,3.15975 l 0.40461,1.66005 -2.782795,1.05644 -2.782795,-1.05989 0.40461,-1.66005 c -0.04649,-1.0672 -0.0093,-2.16228 0.02784,-3.15975 -0.42083,-0.46512 -0.63248,-2.11554 -1.23459,-2.2181 l -1.63916,1.38807 -0.59288,-3.55731 -1.31082,-1.71084 c -0.23603,-0.18373 -0.30561,0.24291 -0.57246,0.17631 -0.04716,-0.99698 0.07201,-2.87805 -0.04606,-3.57899 -0.16099,-0.95579 -0.25676,-1.13859 -0.28033,-2.18568 -0.20925,-0.69751 -0.73661,-0.50922 -0.90676,-0.4185 l -0.78962,0.53334 c 0.99078,-1.4733 1.77906,-2.66247 1.77864,-3.73168 l -0.24412,-2.336653 c 4.16181,-4.440817 2.88304,-5.986967 3.34805,-5.859077 -4.27807,0.186 -6.42873,4.13855 -7.81212,5.684707 -2.63893,1.406653 -2.41805,2.115763 -2.89468,3.278283 0,0 -0.3519,2.86028 0.0022,4.51401 0.30922,1.44398 -0.89439,-2.79665 -0.52534,3.2981 0.09882,1.63194 1.81353,5.02209 1.81353,5.02209 -0.61614,0.372 -1.05789,-0.54639 -1.36014,-0.1395 0.18599,1.04625 0.12787,2.19714 0.66263,3.13879 l 2.51104,3.13881 -1.77865,-0.0698 c 0.15112,0.31387 0.47663,2.30179 6.10322,3.31317 l 3.59218,-0.73239 1.22064,0.52314 -2.72029,2.05766 2.82492,0.69751 3.201305,-1.9513 z"
     id="path4997"
     style="fill:#f3c463;fill-opacity:1;fill-rule:evenodd;stroke:none;display:inline"
     inkscape:connector-curvature="0" /><polygon
     points="17.334,110.596 21.902,110.596 23.314,106.252 23.314,106.252 24.726,110.596 29.294,110.596 25.599,113.282 27.01,117.627 23.314,114.942 19.619,117.627 21.03,113.282 "
     transform="matrix(1.50991,0,0,1.6121,11.5003,-75.426)"
     id="polygon4020"
     style="fill:#f3c463;fill-opacity:1;stroke:none;display:inline" /></g>
</svg>