<?xml version="1.0" encoding="utf-8"?>
<!-- Generator: Adobe Illustrator 21.1.0, SVG Export Plug-In . SVG Version: 6.00 Build 0)  -->
<svg version="1.1" id="Layer_1" xmlns="http://www.w3.org/2000/svg" xmlns:xlink="http://www.w3.org/1999/xlink" x="0px" y="0px"
	 viewBox="0 0 45.7 40.1" style="enable-background:new 0 0 45.7 40.1;" xml:space="preserve">
<g>
	<path d="M45.4,20.3l-1.7,0.2c-0.1-0.7-0.6-1.6-0.6-1.6c-1.1-2-2.5-1.9-2.5-1.9h-1.3c-1,0.1-1.5,0.8-1.5,0.8
		c-1.1,1.2-1,3.4-1,3.4l-0.6,0.1c0,0-2.9-0.1-2.9-0.2l-0.2-0.3c0-0.2-0.1-0.7-0.1-0.7c0-0.1,0-0.2,0-0.2l-0.5-2.4
		c0,0-0.1-0.7-0.1-1.2c-0.1-0.4-0.3-0.9-0.4-1c0-0.1-0.2-0.5-0.2-0.5c0.1-0.5-0.2-1.3-0.2-1.3l0.2-0.2l0.4-0.3v-0.2L32,12.6
		c0-0.1-0.1-0.2-0.1-0.2c0-0.2-0.1-0.4-0.1-0.4l-0.2-0.6c0,0-0.3-0.7-0.3-0.8s-0.1-0.3-0.1-0.4s-0.1-0.5-0.1-0.5S31,9.5,31,9.4
		s-0.1-0.2-0.1-0.2c0-0.1-0.1-0.2-0.1-0.2s0-0.1-0.1-0.1l-0.1-0.1L30,8.4c0,0-1.4-1-1.6-1.1C28.3,7.1,28.2,7,28.2,7
		c0-0.2-0.1-0.2-0.1-0.2C28,6.7,28,6,28,6s0.1,0,0.1-0.1s0.1-0.3,0.3-0.5S28.5,5,28.5,5s0.3-0.8,0.3-1s0-0.4-0.1-0.5
		c0-0.1,0-0.3,0.1-0.4s0-0.2,0-0.3s0.1-0.1,0.1-0.1c0.1-0.3-0.2-1.1-0.2-1.1s0-0.1-0.1-0.2s0-0.1-0.1-0.2s0-0.2-0.1-0.4
		S28,0.4,27.7,0.3c-0.2,0-0.2,0-0.4-0.1S27,0,26.9,0s-0.1,0-0.1,0h-0.1l-0.4,0.4c-0.4,0.1-0.8,0.6-1.1,1C24.9,1.9,25,2.6,25,2.6v0.1
		v0.6v0.2c0,0,0.1,0.5,0.1,0.6c0.1,0.1,0.3,0.3,0.3,0.3c0.1,0.1,0.1,0.5,0.1,1.1S25,6.8,25,6.8s0-0.1-0.2,0.1L24.7,7
		c0,0-0.3,0.1-0.5,0.3L23,8.1l-0.6,0.6c0,0-0.2,0-0.3,0.3s-0.7,1-0.8,1.7c0,0-0.3,1.1-0.4,1.3s0,0.3-0.1,0.4s-0.2,0.3-0.2,0.4
		s0.1,0.1,0.3,0.2c0,0,0.3,0.2,0.3,0.3c0,0,0,0.2,0.1,0.2s0,0.8,0,0.8s-0.2,0.8-0.3,1s-0.3,1-0.4,1.3s-0.3,1.2-0.3,1.2
		S20,19,20,19.6c0,0.7-0.2,1.6-0.2,1.8l-0.2,0.1c0,0-0.5,0.1-0.6,0.3l-3.9,1.8l-2.9,0.3c0,0-0.5-3.8-1.6-4.5c0,0-0.3-0.2-0.4-0.2
		s-0.8,0-0.8,0s-0.2,0-0.3,0.1c0,0-0.1-0.1-0.3-0.1s-0.6,0-0.6,0S7.9,19.3,7.7,20c-0.2,0.6-0.3,2.6-0.2,3.9V24H7.3
		c0,0-0.1,0-0.1,0.1s-0.1,0.3-0.1,0.4l-7,0.8L0,25.4l0.1,1c0,0,0,0.1,0.1,0.1s7-0.8,7-0.8L7.3,26l0.1,0.1h0.2v0.2h0.1
		c0,0,0.6,3.2,1.2,4c0,0,0.2,0.3,0.4,0.3s0.7-0.1,0.7-0.1l0.2-0.1l0.2,0.1l1.2-0.2c0,0,0.7-0.7,0.8-1.9s0-3.3,0-3.3l3-0.4l6.4,0.4
		c0,0,0.1,0.2,0.2,0.2s0.1-0.2,0.1-0.2h0.1v0.1c0,0,0.2,0,0.3,0.1s0.1,1.2,0.2,1.4v0.7c0,0.2-0.1,1-0.1,1.1c0,0-0.6,1.6-0.6,1.9
		s-0.2,1.1,0.2,2.9c0.4,1.7,0.4,2.4,0.4,2.4s-0.1,0-0.1,0.1v0.5l-0.1,0.2c0,0-0.2,0.3-0.1,0.6c0,0-0.1,0.1,0,0.2c0,0-0.1,0.2,0,0.3
		v0.3c0,0,0,0.2,0.1,0.5s0.3,1.2,0.4,1.3s0.1,0.5,1.1,0.5c1,0.1,1.4-0.4,1.4-0.4s0.1-0.1-0.1-0.3L25,39.1v-0.2c0,0-0.2-0.3-0.2-0.4
		S24.5,38,24.5,38L24,37.7l-0.1-0.4l-0.2-0.4c0,0,0-0.2-0.1-0.3s-0.2-0.5-0.2-0.6s-0.1-0.4-0.1-0.4v-0.1c0,0,0-0.9,0.2-2.1
		s0.3-1.7,0.3-1.8c0-0.2,0-1.3-0.1-1.6c0,0,0.7-1.3,0.8-1.6s0.2-0.7,0.2-0.7s0.3-0.2,0.6-1.5c0,0,1,0.1,1.4-0.2c0,0,0.1-0.4,0-0.5
		l0.1-0.2h0.1l0.2,0.1c0.1,0,0.3,1.4,0.2,1.6s0.2,1,0.3,1.3c0.2,0.3,0.1,0.6,0.1,0.6s-0.2,1.2-0.1,1.9c0.1,0.8,0.3,1.1,0.3,1.1
		s0.4,1.5,0.4,2.3c0,0-0.1,0.1,0,0.3s0,0.3,0,0.3s-0.2,0.1-0.1,0.2s-0.1,0.2-0.1,0.2s0,0.1,0,0.2S28,35.7,28,35.9L27.9,36
		c0,0-0.1,0.3,0,0.5s1,0.5,1,0.5s0.5,0.2,0.6,0.4c0.2,0.2,0.3,0.5,0.5,0.5c0.2,0.1,0.2,0.1,0.2,0.1s0.1,0.1,0.7,0.1
		c0.5,0,0.9-0.3,0.9-0.3s0.2-0.5-0.2-0.8s-0.7-0.5-0.7-0.5s-0.2-0.2-0.3-0.2c0,0-0.5-0.5-0.6-0.6l-0.1-0.2v-0.1l-0.1-0.3l-0.2,0.1
		c0,0,0-0.1,0-0.2s0-0.5,0-0.6s0-0.2,0-0.2c0-0.4,0.2-2.5,0.2-3.5c0.1-1-0.1-1.7-0.1-2c-0.1-0.2-0.1-0.6-0.1-0.6
		c0.1-0.3,0.1-1.5,0.1-1.5l0.3-1.1c0.3,0,0.8-0.3,0.9-0.4s0.1-0.6,0.1-0.6l3-0.4c0.3,0.1,1.3-0.1,1.3-0.1s1.3-1.8,1.4-2s0.1,0,0.1,0
		c0.1,1.2,0.9,2.3,1.6,3s1.9,0.5,1.9,0.5l1.2-0.2c0,0,0.6-0.2,1.4-1.2s0.7-2.9,0.7-2.9l1.7-0.2c0,0,0.3-0.1,0.3-0.4
		C45.6,20.4,45.4,20.3,45.4,20.3L45.4,20.3z M19.5,23.9l-1.3-0.1l-0.4-0.3c0,0,0-0.1,0-0.2l0.8-0.4h0.2l1,0.4c0,0.1,0.4,0.2,0.4,0.2
		v0.1c0,0-0.3,0.1-0.2,0.1C19.8,23.8,19.5,23.9,19.5,23.9z M19.6,22.8l-0.2-0.1l0.2-0.1V22.8z M22,22.8c0,0.1-0.1,1-0.1,1l-0.1-0.1
		l0.1-0.3v-0.2c0,0-0.3-0.3-0.5-0.6S21,22.3,21,22.3l1-0.1v0.3C22,22.4,22.1,22.7,22,22.8z M23.4,17.1c0.1,0.1-0.1,0.2-0.1,0.2
		c-0.3,0-0.5,0.7-0.5,0.7s-0.1,0.6-0.2,0.7c0,0.1-0.1,0.6-0.1,0.6v0.5V20l-0.1,0.3v0.4l-0.1,0.4c-0.1,0-0.1,0.3-0.1,0.3
		s-1.3,0.2-1.4,0.1c0-0.1,0.9-2.5,0.9-2.5s0.2-0.7,0.4-1.1s0.5-1.2,0.5-1.5s0.2-1.3,0.2-1.3l0.1,0.6c0,0,0,0.2,0.1,0.6
		c0,0.3,0.4,0.6,0.4,0.6S23.3,17,23.4,17.1z M30.9,19.4c0-0.1-0.2-0.7-0.2-0.7l-0.1-0.6c0,0-0.2-0.4-0.4-0.6c-0.2,0-0.2-0.2-0.2-0.2
		c0.2-0.1,0.2-0.6,0.2-0.6c0.2,0,0.2-0.3,0.2-0.3l0.1-0.1c0,0,0-0.3,0-0.4v-0.2v0.2l0.2,1l0.1,0.2l1,2.4l0.2,0.3c0,0,0,0.2,0.1,0.3
		s0.2,0.6,0.2,0.6v0.1c0,0.1,0.1,0.3,0.1,0.3L31,21v-0.6C31,20.3,30.9,19.6,30.9,19.4z M34.1,23.2c-0.1,0.1-0.3,0.1-0.3,0.1L31,23.7
		v-0.9c0,0-0.1-0.6-0.2-0.7v-0.2l1.2,0.3l0.1,0.2c0.1,0.2,0.2,0.2,0.2,0.2c-0.1,0.3,0.1,0.3,0.2,0.3s0.2-0.1,0.2-0.1
		c0.1,0.2,0.3,0.1,0.3,0.1c0.1,0.1,0.3,0,0.3,0l0.2-0.2l1.3,0.4L34.1,23.2z M33.9,22.1l-0.1-0.2H34l0.6,0.2l0.1,0.2L33.9,22.1z
		 M35.2,22.5c0,0,0.1,0,0.2-0.1h0.1C35.5,22.3,35.5,22.5,35.2,22.5z"/>
</g>
</svg>
