<?xml version="1.0" encoding="utf-8"?>
<!-- Generator: Adobe Illustrator 21.1.0, SVG Export Plug-In . SVG Version: 6.00 Build 0)  -->
<svg version="1.1" id="Layer_1" xmlns="http://www.w3.org/2000/svg" xmlns:xlink="http://www.w3.org/1999/xlink" x="0px" y="0px"
	 viewBox="0 0 24 28" style="enable-background:new 0 0 24 28;" xml:space="preserve">
<g>
	<path d="M24,25.6c0,0,0-0.2-1-0.4v-0.3c0,0-0.5-0.8-3.1-0.8c-0.1,0,0,0.3,0,0.3c-2.7,0-3.7,0.6-3.7,0.6H16
		c0,0,0-0.6-0.1-0.6S15.7,24,15.7,24l-0.2-0.1l-1.4-2c0,0-1.1-1.7-1.3-2.1S10.3,14,10.3,14l0.4-0.3c0,0-0.2-0.8-0.4-1l-0.4,0.2
		l-0.6-1.4c0,0,0.1-0.4-0.2-0.7l0.2-0.4l0.1-0.1c0,0,0-0.3-0.1-0.4C9.1,9.7,9,9.3,9.3,8.8V8c0,0,0.5-0.2,0.5-0.4S9,5.1,8.8,4.8
		c0,0-0.6-0.8-2.1-1.1c0,0,0.2-0.4,0.1-0.7S6.7,2.3,6.7,2.3L6.6,1.8V1.5c0,0-0.3-1-1.1-1.3S4.1,0.1,3.9,0.9C3.8,1.8,4,2.1,4,2.1
		S3.9,2,3.9,2.3C4,2.6,4,3,4.4,2.9c0,0,0,0.2,0.1,0.5c0,0-0.1,0-0.1,0.1c0,0-1,0.9-2.1,1.2c0,0-0.6,0.3-0.7,0.9c0,0-0.9,1.9-1.1,1.9
		c0,0-0.5,1-0.3,1.4S2.1,10.1,3,10v0.7L3.3,11c0,0-0.2,0.2-0.1,0.8c0,0-0.4,0.3-0.4,1v1c0,0,0,0.2,0.1,0.4c0,0.2,0.1,0.5,0.1,0.6
		s-0.1,0.4-0.1,0.7S2.8,15.9,2.8,16v0.6c0,0,0.5-0.1,0.7,0.1l0.1-0.1l0.3,0.1c0,0,0.6,0.1,1,0c0,0,0.3,0.9,0.7,1.2
		c0,0,0.2,0.8-0.1,1.4c-0.3,0.5-0.4,1.5-0.1,2.8c0,0,0.4,1.8,0.1,2.2c0,0-0.6,0.9-0.4,1.2s0.3,1,1.3,1S7.2,26,7.2,26s-0.4-0.2-0.4-1
		c0,0,0.2-0.3,0.2-0.4c0-0.2-0.2-0.4-0.2-0.4s0-1.2,0.1-1.8c0.2-0.5,0.2-1.6,0.4-2.8s0.3-1.3,0-2.6c0,0,0.2-0.2,0.4-0.1
		s0.2,0.4,0.3,0.4s1,1.8,1.3,1.9c0,0-0.1,1.5,0.4,2.4c0.5,1,0.7,1.3,0.7,1.3s0.1,0.5,0.2,0.6s-0.1,0.4,0,0.4s0,0.2,0,0.2
		s-0.2,0.3-0.2,0.5S10,24.8,10,24.9s-0.3,0-0.2,0.5C9.9,26,11,26.2,11,26.2s1,0.6,1.8,0.5s0.6-0.3,0.2-0.7s-0.9-1.7-0.8-1.9
		c0-0.2,0-0.2,0-0.2l-0.3,0.2h-0.1c0,0,0-0.5-0.2-0.8c0,0-0.1-1-0.2-1.2c0,0-0.1-1.4-0.4-2.1s-0.5-1.1-0.5-1.1l-0.3-1.4l2,2.5
		l0.5,0.8c0,0,0.8,1.6,1.1,1.7c0.2,0.2,1,1.6,1,1.6l0.1,0.1H15c0,0,0,0.3,0.2,0.3c0,0-0.8,0.5-0.4,0.7s0.1,0.1,0.1,0.1v0.4
		c0,0-0.4,0.1-0.5,0.2s-0.3,0.7-0.3,0.7l0.4,0.4l-0.1,0.2c0,0,0.3,0.4,0.4,0.4l0.2,0.3h8.5c0,0,0.4,0.1,0.4-0.1c0-0.1,0-1.2,0-1.2
		l-0.1-0.1l0.1-0.2v-0.7H24z M2.3,8.7c0,0,0.2-0.1,0.2-0.3s0.2-0.1,0.2,0C2.8,8.5,3,8.9,3,8.9C2.7,8.8,2.3,8.7,2.3,8.7z M8.1,11.5
		c0,0,0.4,0.2,0.8,0.1s0.2,0.3-0.1,0.3s-0.7-0.1-0.7-0.1V11.5z M10.1,16.4c0-1-0.9-2.9-0.9-2.9c-0.4-1.1-1-1.4-1-1.4L8.3,12
		c0.7,0.2,0.8-0.1,0.8-0.1s0.6,1.6,0.8,1.9c0.2,0.4,1.7,4.6,1.7,4.6C11.2,18.1,10.1,16.4,10.1,16.4z"/>
</g>
</svg>
