<?xml version="1.0" encoding="UTF-8"?>
<svg version="1.1" xmlns="http://www.w3.org/2000/svg" width="64" height="64">
<path d="M0 0 C0.9590625 -0.01546875 0.9590625 -0.01546875 1.9375 -0.03125 C4.88097603 0.72691807 6.6365172 2.60921376 9 4.5 C11.23693925 5.49652628 13.51106855 6.41311584 15.8125 7.25 C16.97394531 7.67796875 18.13539062 8.1059375 19.33203125 8.546875 C20.21246094 8.86140625 21.09289063 9.1759375 22 9.5 C22.32911373 17.13712626 21.22314107 24.38391405 19.91870117 31.88647461 C19.55925298 33.95619653 19.21141789 36.02763149 18.86523438 38.09960938 C17.15207815 48.19584369 17.15207815 48.19584369 16 50.5 C5.44 50.5 -5.12 50.5 -16 50.5 C-17.66581343 43.83674628 -18.99132165 37.31838323 -20.125 30.5625 C-20.30675781 29.52931641 -20.48851563 28.49613281 -20.67578125 27.43164062 C-21.69855492 21.36036387 -22.19256898 15.65578834 -22 9.5 C-21.11957031 9.18546875 -20.23914063 8.8709375 -19.33203125 8.546875 C-18.17058594 8.11890625 -17.00914063 7.6909375 -15.8125 7.25 C-14.66394531 6.83234375 -13.51539063 6.4146875 -12.33203125 5.984375 C-8.95304395 4.64738016 -8.95304395 4.64738016 -6.32421875 2.359375 C-3.92024984 0.43619987 -3.00594262 -0.04848295 0 0 Z M-4.875 4.625 C-6.52854531 7.38090884 -6.39365568 9.35075452 -6 12.5 C-5 14.5 -5 14.5 -3 15.5 C0.14924548 15.89365568 2.11909116 16.02854531 4.875 14.375 C6.52854531 11.61909116 6.39365568 9.64924548 6 6.5 C5 4.5 5 4.5 3 3.5 C-0.14924548 3.10634432 -2.11909116 2.97145469 -4.875 4.625 Z M-15.125 10 C-16.21167969 10.41765625 -16.21167969 10.41765625 -17.3203125 10.84375 C-17.87460937 11.0603125 -18.42890625 11.276875 -19 11.5 C-19.10386842 16.30860953 -18.76229553 20.75571169 -17.94140625 25.4921875 C-17.60979492 27.41417969 -17.60979492 27.41417969 -17.27148438 29.375 C-17.15506592 30.03113281 -17.03864746 30.68726562 -16.91870117 31.36328125 C-16.55995374 33.38938052 -16.21198053 35.41712848 -15.86523438 37.4453125 C-15.36052796 43.38451237 -15.36052796 43.38451237 -13 48.5 C-11.07332493 48.58748207 -9.14348139 48.60697334 -7.21484375 48.59765625 C-6.04501953 48.59443359 -4.87519531 48.59121094 -3.66992188 48.58789062 C-1.82237305 48.57532227 -1.82237305 48.57532227 0.0625 48.5625 C1.29806641 48.55798828 2.53363281 48.55347656 3.80664062 48.54882812 C6.87114117 48.53699608 9.93554721 48.52051173 13 48.5 C14.8976036 42.41399206 16.04002328 36.27679126 17.125 30 C17.30675781 28.99324219 17.48851562 27.98648438 17.67578125 26.94921875 C18.587242 21.72031235 19.2236301 16.80748762 19 11.5 C15.7 10.51 12.4 9.52 9 8.5 C8.690625 10.1396875 8.690625 10.1396875 8.375 11.8125 C7 15.5 7 15.5 1 18.5 C1 25.1 1 31.7 1 38.5 C0.34 38.5 -0.32 38.5 -1 38.5 C-1 31.9 -1 25.3 -1 18.5 C-2.98 17.51 -4.96 16.52 -7 15.5 C-8.375 11.8125 -8.375 11.8125 -9 8.5 C-11.36543716 8.5 -12.92304264 9.14762941 -15.125 10 Z " fill="#000000" transform="translate(42,6.5)"/>
<path d="M0 0 C5.28 0 10.56 0 16 0 C16 16.5 16 33 16 50 C10.72 50 5.44 50 0 50 C0 33.5 0 17 0 0 Z M2 3 C1.95919217 4.99958364 1.95745644 7.00045254 2 9 C3.32 9 4.64 9 6 9 C6 9.66 6 10.32 6 11 C4.68 11 3.36 11 2 11 C2 13.64 2 16.28 2 19 C3.32 19 4.64 19 6 19 C6 19.66 6 20.32 6 21 C4.68 21 3.36 21 2 21 C2 23.64 2 26.28 2 29 C3.32 29 4.64 29 6 29 C6 29.66 6 30.32 6 31 C4.68 31 3.36 31 2 31 C2 33.64 2 36.28 2 39 C3.32 39 4.64 39 6 39 C6 39.66 6 40.32 6 41 C4.68 41 3.36 41 2 41 C1.95745644 42.99954746 1.95919217 45.00041636 2 47 C3.03033389 48.25173779 3.03033389 48.25173779 5.25 48.1328125 C6.61125 48.12894531 6.61125 48.12894531 8 48.125 C8.9075 48.12757812 9.815 48.13015625 10.75 48.1328125 C12.96966611 48.25173779 12.96966611 48.25173779 14 47 C14.09795311 45.62390118 14.12798088 44.24286118 14.12939453 42.86328125 C14.13254669 41.98567139 14.13569885 41.10806152 14.13894653 40.20385742 C14.1369223 39.24970947 14.13489807 38.29556152 14.1328125 37.3125 C14.13376923 36.33966064 14.13472595 35.36682129 14.13571167 34.36450195 C14.13639358 32.303222 14.13453853 30.24193992 14.13037109 28.18066406 C14.125023 25.01362312 14.13031572 21.846724 14.13671875 18.6796875 C14.13605797 16.68229135 14.13477681 14.68489529 14.1328125 12.6875 C14.13483673 11.73335205 14.13686096 10.7792041 14.13894653 9.79614258 C14.13579437 8.91853271 14.13264221 8.04092285 14.12939453 7.13671875 C14.12859894 6.36030029 14.12780334 5.58388184 14.12698364 4.78393555 C14.19403542 2.97566338 14.19403542 2.97566338 13 2 C11.33570949 1.90176063 9.66718069 1.87026369 8 1.875 C7.0925 1.87242188 6.185 1.86984375 5.25 1.8671875 C3.03033389 1.74826221 3.03033389 1.74826221 2 3 Z " fill="#000000" transform="translate(0,7)"/>
<path d="M0 0 C0.99 0 1.98 0 3 0 C2.67 1.32 2.34 2.64 2 4 C1.01 4 0.02 4 -1 4 C-0.67 2.68 -0.34 1.36 0 0 Z " fill="#000000" transform="translate(40,15)"/>
</svg>
