<?xml version="1.0" encoding="utf-8"?>
<!-- Generator: Adobe Illustrator 24.2.1, SVG Export Plug-In . SVG Version: 6.00 Build 0)  -->
<svg version="1.1" id="Layer_1" xmlns="http://www.w3.org/2000/svg" xmlns:xlink="http://www.w3.org/1999/xlink" x="0px" y="0px"
	 viewBox="0 0 23.9 7.1" style="enable-background:new 0 0 23.9 7.1;" xml:space="preserve">
<path d="M20.6,2.3c-0.2,0.6-0.5,1.2-0.7,1.7s-0.2,0.8,0.4,0.9C21.1,5,21.8,5.3,22.6,5c0,0,0,0,0.1,0
	c0.2,0,0.9,0.6,0.9,0.8c0.1,0.4-0.3,0.8-0.7,0.8c-1,0-1.9,0.2-2.9,0.3c-0.3,0-0.7,0.2-1,0.2S18.5,7,18.4,6.7C18.3,6,18,5.5,17.9,4.8
	c0-0.3-0.1-0.5-0.1-0.8c0-0.2-0.1-0.2-0.3-0.2c-0.5,0.1-1,0.1-1.4,0.2c-0.7,0.2-1.4,0-2.1,0.1c-0.2,0-0.3,0-0.5,0.1
	c-0.8,0.4-1.7,0.6-2.6,0.6C10.2,4.9,9.6,5,9,5.2c-0.3,0-0.5-0.1-0.6-0.4S8.2,4.4,7.9,4.5c-0.4,0.1-0.8,0.1-1.2,0
	C6.3,4.3,5.9,4.3,5.4,4.3S4.3,4.2,3.8,4.1S2.9,4,2.5,4.1C2.2,4.1,2,4.4,1.9,4.7c-0.1,0.2,0,0.4,0.2,0.6c0.1,0.1,0.2,0.2,0.1,0.3
	C2,5.8,1.7,6,1.5,6.1C1,6.3,0.3,5.9,0.2,5.4C0.1,4.8,0.1,4.2,0,3.6s0.1-0.8,0.7-0.8c1,0,2,0.2,3.1-0.1C4.2,2.6,4.6,2.5,5,2.4
	c0.4-0.1,0.8-0.1,1.2-0.1c0.5,0.1,1.1,0.1,1.6,0.1c0.4,0,0.8-0.2,1.3-0.2c0.5-0.1,1-0.3,1.6-0.4c0.3,0,0.7-0.2,0.9-0.4
	C12.2,1,12.8,0.9,13.4,1c1.3,0.2,2.5-0.1,3.8-0.6c0.9-0.3,1.8-0.4,2.7,0c0.2,0.1,0.5,0.1,0.7,0.3c0.2,0.1,0.4,0,0.6-0.1
	c0.3-0.2,0.5-0.4,0.7-0.5c0.8-0.3,1.7,0.2,1.9,1c0.1,0.5-0.1,0.9-0.3,1.4c0,0.1-0.1,0.1-0.2,0.1c-0.3-0.2-0.5,0.1-0.7,0.2
	S22.2,2.9,22,3.1c0,0-0.1,0-0.2-0.1c-0.1-0.2-0.4-0.2-0.5-0.2c-0.3,0.1-0.4-0.1-0.5-0.3C20.7,2.4,20.7,2.3,20.6,2.3z M21.4,5.8
	c-0.3,0-0.7-0.1-1,0C20.7,5.9,21.1,5.9,21.4,5.8z"/>
</svg>
