<?xml version="1.0" encoding="utf-8"?>
<!-- Generator: Adobe Illustrator 21.1.0, SVG Export Plug-In . SVG Version: 6.00 Build 0)  -->
<svg version="1.1" id="Layer_1" xmlns="http://www.w3.org/2000/svg" xmlns:xlink="http://www.w3.org/1999/xlink" x="0px" y="0px"
	 viewBox="0 0 93.2 40.1" style="enable-background:new 0 0 93.2 40.1;" xml:space="preserve">
<g>
	<path d="M82.3,40.1c-1.2,0-3.2-0.4-3.2-0.4c-0.6,0.1-1.8,0-1.8,0s-3.1-0.1-3.3-0.2s-0.2-0.6-0.2-0.7s-0.3-0.6-0.3-0.6
		c-0.3-0.1-0.5-0.6-0.6-0.7s-0.1-0.6-0.1-0.6l-0.3-1l-0.5-2c0,0-0.5-2.3-0.9-3.6s-0.2-3.6-0.2-3.6s0.2-1.3,0.2-1.7
		c0-0.5,0-1.3,0-1.5s0.1-0.7,0-0.9s-0.1-0.3,0.1-1.1s0-1.3-0.1-1.8s-0.4-1.4-0.4-1.4c-3.9,1.5-9.6,1.9-10.7,2c-1,0.1-5-0.1-5.5-0.1
		c-0.5-0.1-1.4-0.6-1.4-0.6V20h-0.2c-0.5,0.2-0.8-0.4-0.8-0.4C52.2,20.1,52,21,52,21c0.1,0.4,0,0.8,0,0.8l-1.1,0.9l-0.3,0.4
		c-0.4,0.2-1.5,0.3-1.6,0.4c-0.1,0-0.8,0.2-0.8,0.2L45.5,24c-0.6-0.3-1,0-1,0c-2.1,1.8-5.6,2.8-5.6,2.8l-1.5,0.5l-0.6-0.5l-1.5-1.9
		c0,0-2.7,0.7-3.1,0.7c-0.4,0.1-2.3,0.9-3.4,1.1s-5.2,0-5.2,0s-3,0.8-5.9,1.2c-2.8,0.4-5.2,0.8-5.2,0.8s-0.3,0-0.3,0.1
		S11.6,29,11.6,29s0.5,0.7,0.1,0.9s-0.8,0.8-1,0.8s-0.6,0.7-0.6,0.7H10c0,0,0,0.5-0.1,0.6c-0.1,0.1,0,0.1,0,0.1s-0.1,0.6-0.3,0.6
		c0,0,0.1,0.5,0,0.5c-0.1,0.1-0.1,0.3-0.1,0.4c-0.1,0.1-0.1,0.1-0.1,0.1s0.1,0.6,0.1,0.7s0.2,0.2,0.2,0.3C9.6,34.9,9.5,35,9.5,35
		s0.1,0.4,0.4,0.2s0.5-0.2,0.6,0.1s0.7,0.4,0.7,0.4S12,36,12,36.6l0.1,0.1l-0.2,0.8c0,0-0.3,0.1-0.5,0.3L11.1,38
		c0,0-0.5,0.1-0.7,0.1s0,0.1,0,0.1s-0.8,0.5-1.3,0.5s-3.2,0.4-4.2-0.1v-0.1l-0.3,0.9l-0.4-0.8v-0.5L4,37.7v-0.1l-0.5-0.3L3,36.9
		l-1-2.3c0,0-1.1-3.8-1.3-4.6s-0.6-1.3-0.5-2.5c0,0,0-0.7,0.5-0.8s0.5-0.1,0.5-0.1s0.2-0.2,0.6,0h0.3h0.3c0,0,0.3-0.5,0.4-0.5
		s0.3,0,0.3,0L3.4,26c0,0,0.3-0.3,0.8-0.4c0.5,0,1.2-0.3,1.2-0.3h1.2c0,0,0.1-0.3,0.6-0.1s0.5,0.4,0.5,0.4s0.1-0.2,0.7-0.2
		c0.6-0.1,1-0.3,1-0.3l0.5-0.2l0.3-0.2l0.6-0.2h0.4c0,0,0.3-0.2,0.4-0.2s0.1,0,0.1,0s3.6-1.4,6.1-2.8s4.9-1.4,4.9-1.4
		s3.7-0.2,4.2-0.4s1.5-0.5,1.5-0.5s1.2-0.9,1.6-1.3s1.6-1.6,1.8-1.8c0,0,0.3-0.5,0.4-0.5l0.6-0.7l0.2-0.2l0.6-0.8l1.6-1.3l1-1
		c0,0,0.6-1.5,0.9-2s0.5-1.1,1.1-1.3s0.7-0.2,1.2-0.6s4.8-2.2,4.8-2.2s0.7-0.7,3.3-0.6s2.4,0.8,2.4,0.8s0.7,0.1,0.8,0.1
		s0.5,0,0.7,0.2c0,0-0.2-0.6,0.3-0.5C52.2,5.5,52,6,52,6h0.1c0,0,0.2-0.3,0.5-0.3c0.2,0,0.3,0.1,0.3,0.1s0,0.1,0.2-0.2
		s0.5-0.6,1.3-0.4c0.7,0.3,0.6,0.3,1,0.2c0.4-0.2,0.8-0.2,0.8-0.2s0.5-0.1,1-0.4l0.5-0.1c0,0,0.5-0.4,0.7-0.4c0.1,0,0.6-0.2,0.6-0.2
		l0.3-0.2l0.3-0.1l1.6-0.9c0,0,0.3-0.4,0.6-0.3c0,0,0.3-0.1,0.5-0.1s0.3,0.1,1-0.1s1-0.2,1-0.2s0.5-0.3,0.7-0.4S65.4,2,65.6,2
		s0.6-0.1,0.7-0.2s0.9,0.1,0.9,0.1L68,1.7c0,0,0.3-0.3,0.6-0.4c0.4,0,0.5,0.2,0.5,0.2s0.1,0,0.5-0.1s1.6-0.7,2.9-0.8
		s2.1,0.2,2.7,0.4s0.9,0.1,1,0.2c0.2,0.1,0.5,0.2,0.5,0.2S77.5,1,77.8,1s0.5,0.2,0.7,0.6s0.2,0.5,0.4,0.5c0.1,0,0.4-0.3,0.6,0.1
		c0,0,1.6-0.3,3.1-0.9s1.6-0.6,1.6-0.6s0.5-0.4,1-0.5s3-0.6,4.9,0.1c1.8,0.8,2.8,1.6,3.1,3.5s0.5,4.5-2.4,6.9l-0.4-0.1
		c0,0-0.7,0.3-1.2,0.4c0,0-0.3,0.1-0.6,0.3s-0.8,0.4-1,0.4s-0.4-0.3-0.8-0.2s-0.6,0.7-0.7,0.7C85.9,12.3,85,13,84.9,13
		s-0.3,0.1-0.6-0.1s-0.4-0.7-0.4-0.7l-1.3-0.1L82.5,12c0,0-0.3,0.2-0.6,0.2s-0.5-0.1-1.2-0.1s-1.1-0.2-1.1-0.3S79,13.2,79,13.2
		L78.2,14L78,14.2c0,0,0,1.1-0.4,1.6c0,0-0.2,0.5-0.2,0.6S77,17.5,77,17.5s0.3,0.3,0,0.4v0.6c0,0.1,0,0.2-0.1,0.2
		c0,0-0.1,1.5,0.2,3.2s0.4,3,0.2,4.1c-0.2,1-0.9,4-0.9,4s-0.5,2.1-0.4,3s-0.2,1.9-0.3,2.1v0.8c0,0,0.5,0.1,0.7,0.1s0.9,0.1,0.9,0.1
		s0.3,0.2,0.4,0.2h0.1c0,0,0.6,0.1,0.9,0.4c0.2,0.3,1.4,0.3,1.4,0.3s1.1,0.3,1.2,0.3s1.1,0.2,1.1,0.2l0.8,0.1l0.4,0.1
		c0,0,0.2,0.3,0,0.5s-0.8,0.1-0.8,0.1s-0.1,0.2-0.2,0.2c0,0,0.3,0.2,0.8,0.3c0.6,0.1,1.1,0.4,1.1,0.4s0.6,0.1,0.6,0.3
		s-0.1,0.3-0.5,0.3c0,0,0.2,0.3-1,0.2c-1.1-0.1-1-0.1-1-0.1S82.7,40.2,82.3,40.1L82.3,40.1z"/>
</g>
</svg>
