<?xml version="1.0" encoding="utf-8"?>
<!-- Generator: Adobe Illustrator 21.1.0, SVG Export Plug-In . SVG Version: 6.00 Build 0)  -->
<svg version="1.1" id="Layer_1" xmlns="http://www.w3.org/2000/svg" xmlns:xlink="http://www.w3.org/1999/xlink" x="0px" y="0px"
	 viewBox="0 0 11.4 28" style="enable-background:new 0 0 11.4 28;" xml:space="preserve">
<g>
	<path d="M9,10.4c0.3-0.1,0.6-0.2,0.6-0.2s0.3-0.1,0.4-0.1s0.7-0.1,0.9-0.3c0,0,0.3,0,0.3-0.2c0,0,0.2-0.1,0.2-0.3
		c0-0.1-0.2-0.2-0.2-0.2V9c0-0.1,0-0.2-0.2-0.3c0,0,0.1-0.4-0.1-0.4c0,0-0.1,0-0.1,0.1s-0.4,0.5-0.5,0.5c-0.2,0-0.3,0-0.2-0.1
		c0,0,0.4-0.3,0.5-0.4s0-0.2-0.1-0.2s-0.4,0.3-0.4,0.3S9.9,8.9,9.7,9.1C9.6,9.3,9.5,9.5,9.2,9.6C9,9.8,7.9,9.9,7.9,9.9L8,9.1
		c0,0,0.3-1.3,0.3-1.6c0.1-0.3-0.3-1-0.3-1L7.2,5.1V5c0,0-0.1-0.1,0-0.2s0-0.2,0-0.3s0-0.1,0-0.1l0.5-0.5c0.1-0.1,0.2-0.1,0.4,0
		s0.3,0.1,0.5,0c0.1-0.1,0.1-0.3,0.1-0.4c0,0,0.1-0.1,0.1-0.2s0-0.2,0-0.2L8.9,3V2.7c0.1,0,0.3,0.1,0.3,0.1l0.1-0.1
		c0,0,0-0.1-0.1-0.2C9.1,2.3,9,1.9,9,1.9V1.8V1.7c0.1,0,0.1-0.2,0.1-0.2C9.2,1.3,9,0.8,9,0.8s0,0,0-0.1s0-0.1-0.1-0.1
		c0,0-0.1-0.1-0.2-0.1S8.5,0.3,8.5,0.3L8.2,0.2c0,0-0.1,0-0.1-0.1c0,0-0.4-0.1-0.9,0C6.7,0,6.5,0.3,6.2,0.5C6,0.8,5.9,1.3,5.8,1.4
		c0,0.1-0.1,0.1-0.2,0.2c-0.1,0-0.1,0.1-0.1,0.1H5.3c-0.1,0-0.1,0.1-0.1,0.1L5.1,1.9C5,2,4.9,2.2,4.9,2.2L5,2.3l0.1,0.1l0.1,0.1
		l0.1,0.3L5.4,3h0.2l0.2-0.2C5.9,2.8,6,2.7,6,2.7h0.1l0.1,0.1c0,0,0,0.1,0.1,0.1c0,0,0,0,0.1,0.2C6.2,3.3,6,3.6,6,3.6L5.7,3.8H5.6
		C5.5,3.8,5.2,4.1,5,4.3c0,0.1-0.2,0.5-0.2,0.5S4.6,5,4.6,5.2C4.5,5.4,4.3,5.6,4.3,5.6S3.9,5.7,3.9,5.8s0,0.2,0,0.2L3.6,6.1
		C2.7,6.7,2,7.6,1.8,7.8C1.6,8,1.7,8.2,1.7,8.2S2.2,8.7,2.3,9S3,10,3,10l0.8,0.8c0,0-0.1,0.3,0.1,0.4s0.2,0.2,0.2,0.2H4
		c0,0-0.4,0.3-0.4,0.5C3.5,12,3,13.7,3,13.7s-0.2,0.2-0.2,0.5s0.1,1.2,0.2,1.4c0.1,0.1,0.1,0.6,0.1,0.6L3,16.8v0.1L3.2,17l0.4,0.1
		c0,0,0.2,0.9,0.2,1.3s-0.3,1.4-0.3,1.4s-1.2,1.4-1.4,2s-1,2.8-1.2,3s-0.3,0.5-0.3,0.5s0,0.1-0.1,0.1s-0.1,0.1-0.1,0.1
		s-0.1,0.1-0.1,0.2s-0.1,0.2-0.1,0.2l-0.1,0.2c0,0-0.1,0.1-0.1,0.2s0.1,0.3,0.4,0.4c0,0,0-0.1,0.1,0.1c0,0,1.1,0.3,1.2,0.3
		s0.4,0.4,0.4,0.4L2.5,28h0.2h0.4h0.6c0,0,0.3-0.2,0.4-0.3v-0.2c0,0,0.1-0.2,0-0.3S4,27,4,27s-0.5-0.2-0.7-0.2v-0.1l-0.1-0.3L3,26
		H2.9l-0.4-0.1V26H2.3l-0.1-0.1v-0.1c0,0,0-0.2-0.1-0.2s-0.1,0-0.1,0s0-0.2,0.2-0.6s1.3-2,1.3-2s0.1,0.4,0.1,0.5
		c0,0,0.1,0.5,0.2,0.6s0.1,0.2,0.1,0.2l0.2,0.6c0,0,0.2,0.4,0.4,0.5c0.1,0.1,0.3,0.1,0.4-0.1s-0.1-0.5-0.1-0.5v-0.1l-0.1-0.3
		c0-0.1,0-0.1,0-0.1s0.1-0.2,0.1-0.3S5,23.8,5,23.8v-0.1c0,0,0,0,0-0.1s0-0.2,0-0.2s0,0,0-0.1v-0.2L5.1,23c0,0,0.1,0,0.1-0.1
		s0-0.1,0-0.2s0.1-0.1,0.1-0.2c0.1-0.1,0.1-0.1,0-0.1S5.6,22,5.6,22l0.1-0.1c0,0,0.8-0.5,2.1-1.1s2-1.1,2-1.1s0.4-0.3,0.5-0.3
		c0,0,1-0.5,1-0.9c0.1-0.5-0.2-1.1-0.4-1.5S10,15.7,10,15.7s0-0.1-0.1-0.2c0-0.1-0.1-0.1-0.2-0.1c-0.1-0.1-0.1-0.1-0.1-0.2
		S9.5,15,9.4,15s-0.1-0.1-0.1-0.1l-0.2-0.2L9,14.9l-0.1-0.1l-0.1-0.1c0,0-0.1-0.2-0.3-0.3c0,0,0-0.2-0.2-0.1c0,0-0.5-0.4-0.6-0.4
		c0,0,0.2-0.2-0.1-0.4c0,0,0.2-0.5,0.1-0.7c0,0,0-0.4-0.2-0.5c0,0,0.1-0.3,0-0.4c0,0,0.3-0.7,0.3-1.1C7.9,10.9,8.7,10.5,9,10.4z
		 M4,9.3c0,0-0.4-0.6-0.5-1.2c0,0,0.1-0.2,0.2-0.2s0.4-0.1,0.4-0.1l0.1,0.9L4,9.3z M7.8,17.4c0.2,0.1,0.7,0.4,0.8,0.4
		C8.7,17.9,9,18.1,9,18.1s0.1,0.1,0.1,0.2S9,18.4,9,18.4S8.2,18.8,7.8,19S7,19.7,6.1,20.4s-1.5,1.1-1.5,1.1c-0.1-0.1-0.2,0-0.2,0
		s0.5-0.8,0.7-1s0.5-0.6,0.5-0.7s0.1-0.3,0.1-0.3c0.2-0.4,0.4-1.9,0.4-1.9l0.1-0.3l0.1-0.1H7l0.3-0.1C7.2,17.2,7.6,17.3,7.8,17.4z"
		/>
</g>
</svg>
