<?xml version="1.0" encoding="UTF-8"?>
<svg version="1.1" xmlns="http://www.w3.org/2000/svg" width="48" height="48">
<path d="M0 0 C5.82485779 3.51996782 10.54466582 8.98962934 12.5625 15.5 C13.40614704 23.71084384 13.30497477 30.58953676 8.5625 37.5 C7.5725 37.83 6.5825 38.16 5.5625 38.5 C4.88292038 39.82679831 4.21705519 41.16067938 3.5625 42.5 C-3.35880897 47.29167544 -10.19882824 47.42504385 -18.4375 46.5 C-25.10064805 44.78875812 -29.61233458 40.051659 -33.4375 34.5 C-36.65508176 28.13966396 -36.43529833 20.07584077 -34.9375 13.20703125 C-32.43968586 6.77799828 -27.13650115 2.96895722 -21.4375 -0.5 C-14.97656695 -2.65364435 -6.29561884 -2.81319976 0 0 Z " fill="#535959" transform="translate(35.4375,1.5)"/>
<path d="M0 0 C5.82485779 3.51996782 10.54466582 8.98962934 12.5625 15.5 C13.40614704 23.71084384 13.30497477 30.58953676 8.5625 37.5 C7.5725 37.83 6.5825 38.16 5.5625 38.5 C4.88292038 39.82679831 4.21705519 41.16067938 3.5625 42.5 C-3.35880897 47.29167544 -10.19882824 47.42504385 -18.4375 46.5 C-25.10064805 44.78875812 -29.61233458 40.051659 -33.4375 34.5 C-36.64011464 28.16925014 -36.61671502 19.80788377 -34.76171875 13.03125 C-33.9375 11.125 -33.9375 11.125 -32.4375 8.5 C-31.7775 8.5 -31.1175 8.5 -30.4375 8.5 C-30.623125 9.4075 -30.80875 10.315 -31 11.25 C-31.41772935 14.35313234 -31.22842893 15.59992725 -30.4375 18.5 C-30.4375 20.83333333 -30.4375 23.16666667 -30.4375 25.5 C-30.06144674 29.76193697 -27.52346003 31.71510924 -24.4375 34.5 C-23.7775 34.83 -23.1175 35.16 -22.4375 35.5 C-19.11463817 30.857408 -19.11463817 30.857408 -17.4375 25.5 C-17.10416667 24.16666667 -16.77083333 22.83333333 -16.4375 21.5 C-15.7775 22.82 -15.1175 24.14 -14.4375 25.5 C-11.56336875 25.83397787 -11.56336875 25.83397787 -8.4375 25.5 C-6.52493288 23.61922127 -6.52493288 23.61922127 -5.4375 21.5 C-5.52 22.5725 -5.6025 23.645 -5.6875 24.75 C-5.80603278 28.50585536 -5.80603278 28.50585536 -3.5625 30.75 C-2.86125 31.3275 -2.16 31.905 -1.4375 32.5 C-0.7775 33.49 -0.1175 34.48 0.5625 35.5 C2.2125 33.19 3.8625 30.88 5.5625 28.5 C6.5625 31.5 6.5625 31.5 6.5625 32.5 C7.2225 32.17 7.8825 31.84 8.5625 31.5 C10.47811899 25.75314302 10.77896949 18.7203632 8.62109375 13.0078125 C5.19120714 7.30925481 0.88929659 3.63901682 -5.4375 1.5 C-12.82554889 0.60132568 -18.82039407 0.68645375 -24.8515625 5.30859375 C-26.4375 6.5 -26.4375 6.5 -29.4375 7.5 C-27.93114535 3.28220697 -25.19737578 1.7252326 -21.4375 -0.5 C-14.97656695 -2.65364435 -6.29561884 -2.81319976 0 0 Z " fill="#525959" transform="translate(35.4375,1.5)"/>
<path d="M0 0 C0.37125 0.66 0.7425 1.32 1.125 2 C2.89599371 4.29468448 2.89599371 4.29468448 6 4.5 C9.10400629 4.29468448 9.10400629 4.29468448 10.875 2 C11.24625 1.34 11.6175 0.68 12 0 C11.9175 1.0725 11.835 2.145 11.75 3.25 C11.63146722 7.00585536 11.63146722 7.00585536 13.875 9.25 C14.57625 9.8275 15.2775 10.405 16 11 C16.99 12.485 16.99 12.485 18 14 C19.65 11.69 21.3 9.38 23 7 C23.495 8.485 23.495 8.485 24 10 C21.24304393 14.72008044 17.20413269 18.39144989 12 20 C5.54909823 20.82639003 -0.20644536 21.20034131 -5.6875 17.3125 C-8.45313933 14.8612702 -10.13480876 12.67706275 -11 9 C-9.02 10.65 -7.04 12.3 -5 14 C-1.42236108 8.92206089 0 6.15863939 0 0 Z " fill="#353C3D" transform="translate(18,23)"/>
<path d="M0 0 C3.54317709 2.14698091 6.39522733 4.40571566 8.5390625 8.0234375 C8.2090625 8.6834375 7.8790625 9.3434375 7.5390625 10.0234375 C6.2190625 8.3734375 4.8990625 6.7234375 3.5390625 5.0234375 C1.00174886 6.29209432 0.75259404 7.52052871 -0.4609375 10.0234375 C-1.1209375 10.6834375 -1.7809375 11.3434375 -2.4609375 12.0234375 C-3.15842333 13.34091074 -3.83053707 14.67257943 -4.4609375 16.0234375 C-4.7909375 15.6934375 -5.1209375 15.3634375 -5.4609375 15.0234375 C-9.60370625 14.77610613 -9.60370625 14.77610613 -13.4609375 16.0234375 C-13.6878125 15.2809375 -13.9146875 14.5384375 -14.1484375 13.7734375 C-15.70501282 10.51204159 -17.54612604 9.09448775 -20.4609375 7.0234375 C-22.9359375 8.5084375 -22.9359375 8.5084375 -25.4609375 10.0234375 C-24.02272937 4.98970906 -21.55848235 3.03387861 -17.4609375 0.0234375 C-11.94888016 -1.81391495 -5.45941809 -2.16643575 0 0 Z " fill="#384041" transform="translate(32.4609375,5.9765625)"/>
<path d="M0 0 C1.15224028 0.92961422 2.29659176 1.8690125 3.4375 2.8125 C4.39462891 3.59560547 4.39462891 3.59560547 5.37109375 4.39453125 C7 6 7 6 8 9 C8.33 8.67 8.66 8.34 9 8 C12 7.875 12 7.875 15 8 C16 9 16 9 16.125 12 C16 15 16 15 15 16 C12.0625 16.25 12.0625 16.25 9 16 C8.34 15.01 7.68 14.02 7 13 C7.0825 13.721875 7.165 14.44375 7.25 15.1875 C6.82579095 19.95985183 3.34983962 22.81765236 0 26 C-4 21.25 -4 21.25 -4 19 C-3.01 18.67 -2.02 18.34 -1 18 C-1 14.04 -1 10.08 -1 6 C-1.99 5.67 -2.98 5.34 -4 5 C-3 2 -3 2 0 0 Z " fill="#495354" transform="translate(12,12)"/>
<path d="M0 0 C2.99324263 1.0975223 3.84610901 1.67682892 5.25 4.625 C5.4975 5.40875 5.745 6.1925 6 7 C5.01 7.33 4.02 7.66 3 8 C3 11.96 3 15.92 3 20 C3.99 20.33 4.98 20.66 6 21 C4.75023244 24.65316671 4.32901247 25.78065836 1 28 C0.38125 27.05125 -0.2375 26.1025 -0.875 25.125 C-2.81970969 22.05554891 -2.81970969 22.05554891 -5 20 C-5.042721 18.33388095 -5.04063832 16.66617115 -5 15 C-5.33 14.01 -5.66 13.02 -6 12 C-4.93491598 8.44971992 -3.56789031 6.56789031 -1 4 C-0.28552357 1.89667109 -0.28552357 1.89667109 0 0 Z " fill="#485253" transform="translate(34,10)"/>
<path d="M0 0 C5.82485779 3.51996782 10.54466582 8.98962934 12.5625 15.5 C13.41136038 23.76158299 13.22561886 30.50532171 8.5625 37.5 C7.5725 37.995 7.5725 37.995 6.5625 38.5 C7.00775258 35.90269326 7.50261277 33.63503531 8.57421875 31.21875 C10.62753881 25.57009087 10.76332287 18.6558816 8.6171875 13.015625 C5.20462407 7.30655662 0.88614958 3.63795285 -5.4375 1.5 C-12.82554889 0.60132568 -18.82039407 0.68645375 -24.8515625 5.30859375 C-26.4375 6.5 -26.4375 6.5 -29.4375 7.5 C-27.93114535 3.28220697 -25.19737578 1.7252326 -21.4375 -0.5 C-14.97656695 -2.65364435 -6.29561884 -2.81319976 0 0 Z " fill="#070808" transform="translate(35.4375,1.5)"/>
<path d="M0 0 C0.66 0 1.32 0 2 0 C1.125 4.75 1.125 4.75 0 7 C-0.66221217 14.66429165 -0.86289352 21.70508876 4 28 C7.69306533 31.85105743 11.59359234 34.72625521 16.953125 35.3359375 C24.28101932 35.42276089 28.67248725 34.63246102 35 31 C35.99 31.33 36.98 31.66 38 32 C31.31150371 37.73299682 26.12804224 38.46782856 17.4453125 38.3046875 C9.58319245 37.60939797 5.45041296 33.95245981 0.4453125 28.09765625 C-4.03180252 21.59978931 -3.60338189 14.6253479 -3 7 C-2.26558263 4.31704176 -1.38720392 2.42760686 0 0 Z " fill="#070808" transform="translate(3,10)"/>
<path d="M0 0 C1.98 0.99 3.96 1.98 6 3 C6 6.96 6 10.92 6 15 C4.02 15.66 2.04 16.32 0 17 C-2.45397487 11.93867683 -2.82225868 7.41538487 -1 2.0625 C-0.505 1.0415625 -0.505 1.0415625 0 0 Z " fill="#131515" transform="translate(6,15)"/>
<path d="M0 0 C2.75042234 2.75042234 2.97718894 4.58179722 3.1875 8.4375 C3.01557545 11.7040664 2.8292413 13.35776256 1 16 C0.34 16.33 -0.32 16.66 -1 17 C-3.125 16.0625 -3.125 16.0625 -5 15 C-5.13504138 13.06440687 -5.23201129 11.126128 -5.3125 9.1875 C-5.37050781 8.10855469 -5.42851563 7.02960937 -5.48828125 5.91796875 C-5 3 -5 3 -2.48046875 1.11328125 C-1.66191406 0.74589844 -0.84335937 0.37851563 0 0 Z " fill="#141515" transform="translate(41,15)"/>
<path d="M0 0 C1 3 1 3 0.36328125 5.015625 C-2.47395433 9.14546934 -7.36005752 10.59344739 -12 12 C-16.38092344 12.47765575 -20.62856077 12.61161521 -25 12 C-25.66 11.34 -26.32 10.68 -27 10 C-25.99839844 9.90203125 -24.99679688 9.8040625 -23.96484375 9.703125 C-13.94828733 8.61868998 -7.82785729 6.6418183 0 0 Z " fill="#4B5353" transform="translate(42,34)"/>
<path d="M0 0 C3 0.125 3 0.125 4 1.125 C4.125 4.125 4.125 4.125 4 7.125 C3 8.125 3 8.125 0 8.25 C-3 8.125 -3 8.125 -4 7.125 C-4.125 4.125 -4.125 4.125 -4 1.125 C-3 0.125 -3 0.125 0 0 Z " fill="#E8E8E8" transform="translate(24,19.875)"/>
<path d="M0 0 C2 2 4 4 6 6 C10.0413531 6.40471069 10.0413531 6.40471069 14 6 C16.40406384 3.62157423 16.40406384 3.62157423 18 1 C18.66 1 19.32 1 20 1 C18.84826645 3.46800047 17.95216435 5.04783565 16 7 C15.30251417 8.31747324 14.63040043 9.64914193 14 11 C13.67 10.67 13.34 10.34 13 10 C8.85723125 9.75266863 8.85723125 9.75266863 5 11 C4.731875 10.236875 4.46375 9.47375 4.1875 8.6875 C3.19146475 5.99592628 3.19146475 5.99592628 1.375 4.375 C0.92125 3.92125 0.4675 3.4675 0 3 C0 2.01 0 1.02 0 0 Z " fill="#131515" transform="translate(14,11)"/>
<path d="M0 0 C1.32 0 2.64 0 4 0 C4 3.3 4 6.6 4 10 C2.68 10 1.36 10 0 10 C0 6.7 0 3.4 0 0 Z " fill="#C8C8C8" transform="translate(38,19)"/>
<path d="M0 0 C1.32 0 2.64 0 4 0 C4 3.3 4 6.6 4 10 C2.68 10 1.36 10 0 10 C0 6.7 0 3.4 0 0 Z " fill="#C8C8C8" transform="translate(6,19)"/>
<path d="M0 0 C0.50471523 2.01886091 1.0025802 4.01419112 1.375 6.0625 C2.11919817 8.36951432 3.190755 9.42674348 5 11 C4.67 11.99 4.34 12.98 4 14 C3.278125 13.030625 2.55625 12.06125 1.8125 11.0625 C-0.13237593 8.70086494 -0.7882535 8.06587669 -3.8125 7.125 C-4.534375 7.08375 -5.25625 7.0425 -6 7 C-5.195625 6.21625 -4.39125 5.4325 -3.5625 4.625 C-1.01309583 2.28017144 -1.01309583 2.28017144 0 0 Z " fill="#111213" transform="translate(29,23)"/>
<path d="M0 0 C0.66 0 1.32 0 2 0 C1.34728444 3.51705958 0.48606976 6.89325077 -0.5625 10.3125 C-0.83191406 11.19550781 -1.10132812 12.07851563 -1.37890625 12.98828125 C-1.58386719 13.65214844 -1.78882812 14.31601562 -2 15 C-2.33 15 -2.66 15 -3 15 C-3.3152595 9.01006953 -2.68219822 5.36439644 0 0 Z " fill="#030303" transform="translate(3,10)"/>
<path d="M0 0 C0.33 0 0.66 0 1 0 C1.33 2.64 1.66 5.28 2 8 C3.65 8 5.3 8 7 8 C6 10 6 10 4 11 C2.68 10.34 1.36 9.68 0 9 C0 6.03 0 3.06 0 0 Z " fill="#252828" transform="translate(36,21)"/>
<path d="M0 0 C0.33 0 0.66 0 1 0 C1 2.97 1 5.94 1 9 C-0.65 9.66 -2.3 10.32 -4 11 C-4 10.01 -4 9.02 -4 8 C-3.01 8 -2.02 8 -1 8 C-0.67 5.36 -0.34 2.72 0 0 Z " fill="#282B2B" transform="translate(11,21)"/>
<path d="M0 0 C0.66 0 1.32 0 2 0 C2 2.64 2 5.28 2 8 C1.01 8 0.02 8 -1 8 C-0.67 5.36 -0.34 2.72 0 0 Z " fill="#F5F5F5" transform="translate(39,21)"/>
<path d="M0 0 C0.66 0 1.32 0 2 0 C2.33 2.64 2.66 5.28 3 8 C2.01 8 1.02 8 0 8 C0 5.36 0 2.72 0 0 Z " fill="#F5F5F5" transform="translate(7,21)"/>
</svg>
